<?xml version="1.0" standalone="no"?>
<!DOCTYPE svg PUBLIC "-//W3C//DTD SVG 20010904//EN"
 "http://www.w3.org/TR/2001/REC-SVG-20010904/DTD/svg10.dtd">
<svg version="1.0" xmlns="http://www.w3.org/2000/svg"
 width="200.000000pt" height="200.000000pt" viewBox="0 0 200.000000 200.000000"
 preserveAspectRatio="xMidYMid meet">

<g transform="translate(0.000000,200.000000) scale(0.100000,-0.100000)"
fill="#000000" stroke="none">
<path d="M1460 1720 c-36 -10 -170 -47 -297 -81 -241 -64 -277 -78 -256 -100
12 -12 175 17 518 91 72 16 133 26 137 22 4 -4 48 -167 98 -362 50 -195 102
-397 116 -449 14 -51 22 -97 17 -101 -4 -4 -217 -60 -473 -123 -472 -118 -695
-178 -707 -191 -4 -3 0 -13 8 -20 12 -12 26 -12 96 2 l82 16 133 -42 c73 -22
207 -60 298 -82 244 -61 260 -53 299 163 l23 124 126 27 c166 37 189 47 208
91 15 36 13 44 -51 288 -115 436 -186 691 -198 705 -17 20 -63 42 -89 41 -13
0 -52 -9 -88 -19z m20 -1162 c-1 -34 -69 -203 -81 -202 -22 2 -402 86 -422 93
-14 5 408 107 496 120 4 0 7 -5 7 -11z"/>
<path d="M535 1691 c-66 -29 -128 -123 -111 -166 10 -26 25 -16 48 32 13 28
38 58 58 71 69 47 178 8 195 -69 4 -18 -20 -128 -75 -336 -143 -543 -150 -566
-185 -628 -44 -78 -129 -174 -144 -160 -5 6 -18 39 -27 75 -26 101 -15 209 44
460 49 207 112 501 112 520 0 19 -39 10 -45 -11 -5 -14 -12 -18 -23 -14 -175
71 -198 52 -253 -210 -10 -49 -19 -109 -19 -132 0 -37 3 -43 21 -43 27 0 61
77 103 231 l31 117 55 -5 c30 -3 57 -7 59 -9 2 -2 -1 -20 -7 -41 -5 -21 -47
-171 -91 -333 -88 -317 -101 -396 -82 -504 20 -114 46 -171 87 -191 50 -23 78
-10 163 80 115 121 135 173 248 635 109 445 116 500 73 563 -30 44 -109 87
-159 87 -20 0 -54 -9 -76 -19z"/>
<path d="M992 1238 c-87 -122 -162 -245 -162 -266 0 -29 32 -24 69 12 l38 37
17 -88 c26 -134 35 -162 55 -172 13 -7 66 1 187 28 237 54 252 59 259 80 3 10
-10 71 -30 135 -19 63 -35 118 -35 120 0 3 18 -1 41 -9 45 -16 59 -13 59 14 0
30 -340 221 -393 221 -19 0 -41 -23 -105 -112z m229 -36 l95 -44 22 -116 c11
-64 19 -118 17 -120 -2 -3 -62 -18 -132 -34 -70 -15 -135 -31 -144 -33 -12 -4
-24 20 -54 110 -34 101 -36 116 -24 134 45 64 115 150 120 148 3 -1 48 -22
100 -45z"/>
</g>
</svg>
